<svg width="24" height="24" viewBox="0 0 24 24" fill="none" xmlns="http://www.w3.org/2000/svg">
<path d="M2.66667 0C1.19333 0 0 1.19333 0 2.66667V21.3333C0 22.8067 1.19333 24 2.66667 24H21.3333C22.8067 24 24 22.8067 24 21.3333V2.66667C24 1.19333 22.8067 0 21.3333 0H2.66667ZM2.66667 2.66667H21.3333V21.3333H2.66667V2.66667ZM11.7214 7.8099C10.9347 7.80323 10.268 7.8134 9.89063 7.9974C9.63996 8.12006 9.44644 8.39546 9.5651 8.41146C9.71044 8.43013 10.0388 8.49958 10.2161 8.73958C10.4415 9.04758 10.4349 9.73958 10.4349 9.73958C10.4349 9.73958 10.5635 11.6429 10.1302 11.8802C9.83288 12.0429 9.42548 11.7126 8.54948 10.1979C8.10015 9.42058 7.76302 8.5625 7.76302 8.5625C7.76302 8.5625 7.69673 8.40044 7.58073 8.3151C7.43806 8.2111 7.23958 8.17708 7.23958 8.17708L5.14583 8.1875C5.14583 8.1875 4.82954 8.18819 4.71354 8.32552C4.61088 8.44819 4.70573 8.6901 4.70573 8.6901C4.70573 8.6901 6.34706 12.5158 8.20573 14.4531C9.91106 16.2291 11.8437 16.0677 11.8437 16.0677H12.7214C12.7214 16.0677 12.9877 16.0828 13.1224 15.9375C13.2464 15.8028 13.2422 15.5937 13.2422 15.5937C13.2422 15.5937 13.2255 14.4155 13.7708 14.2422C14.3095 14.0715 14.9998 15.3801 15.7318 15.8828C16.2838 16.2641 16.7057 16.1823 16.7057 16.1823L18.6641 16.1563C18.6641 16.1563 19.6871 16.0919 19.2057 15.2813C19.1657 15.2146 18.9233 14.6844 17.75 13.5937C16.5207 12.4524 16.6854 12.6361 18.1641 10.6615C19.0654 9.46013 19.4258 8.72613 19.3125 8.41146C19.2045 8.11013 18.5417 8.1901 18.5417 8.1901L16.3385 8.20313C16.3385 8.20313 16.1734 8.17927 16.0521 8.2526C15.9334 8.3246 15.8568 8.48958 15.8568 8.48958C15.8568 8.48958 15.5083 9.42154 15.0417 10.2135C14.0617 11.8842 13.6691 11.9712 13.5078 11.8672C13.1345 11.6272 13.2292 10.8989 13.2292 10.3802C13.2292 8.76154 13.4727 8.08613 12.75 7.91146C12.51 7.85279 12.3347 7.81656 11.7214 7.8099Z" fill="white"/>
</svg>
